<svg id="visual" viewBox="0 0 960 540" width="960" height="540" xmlns="http://www.w3.org/2000/svg" xmlns:xlink="http://www.w3.org/1999/xlink" version="1.1"><rect x="0" y="0" width="960" height="540" fill="#1d1e21"></rect><path d="M0 359L22.8 356.5C45.7 354 91.3 349 137 338.2C182.7 327.3 228.3 310.7 274 301C319.7 291.3 365.3 288.7 411.2 287.2C457 285.7 503 285.3 548.8 289.7C594.7 294 640.3 303 686 312.3C731.7 321.7 777.3 331.3 823 330.2C868.7 329 914.3 317 937.2 311L960 305L960 541L937.2 541C914.3 541 868.7 541 823 541C777.3 541 731.7 541 686 541C640.3 541 594.7 541 548.8 541C503 541 457 541 411.2 541C365.3 541 319.7 541 274 541C228.3 541 182.7 541 137 541C91.3 541 45.7 541 22.8 541L0 541Z" fill="#18191a" stroke-linecap="round" stroke-linejoin="miter"></path></svg>